<svg xmlns="http://www.w3.org/2000/svg" height="40px" viewBox="0 -960 960 960" width="40px" fill="#FFFFFF"><path d="M665.44-473.49 474.26-664.67l191.18-191.17 191.17 191.17-191.17 191.18Zm-513.13-62.87v-270.92h270.66v270.92H152.31Zm384.05 384.05v-270.66h270.92v270.66H536.36Zm-384.05 0v-270.66h270.66v270.66H152.31Zm50.26-434.3h170.15v-170.41H202.57v170.41ZM667.51-542 788.1-662.59 667.51-783.44 546.67-662.59 667.51-542Zm-80.9 339.43h170.41v-170.15H586.61v170.15Zm-384.04 0h170.15v-170.15H202.57v170.15Zm170.15-384.04Zm173.95-75.98ZM372.72-372.72Zm213.89 0Z"/></svg>